<svg width="316" height="42" viewBox="0 0 316 42" fill="none" xmlns="http://www.w3.org/2000/svg">
<path d="M25.2915 1.5675C25.1277 6.64726 25.0458 11.9591 25.0458 17.5033C25.0458 22.9926 25.1277 28.3044 25.2915 33.4389H17.9283V29.0276C17.1365 30.8575 16.1967 31.8242 14.7789 32.6493C13.361 33.4488 11.6854 33.8486 9.75191 33.8486C8.07625 33.8486 5.59411 33.3137 4.25358 32.3595C2.91306 31.4054 1.86901 30.1159 1.12141 28.4913C0.373809 26.8409 0 25.0357 0 23.0759C0 21.1418 0.263824 18.9127 1.01142 17.2107C1.75902 15.4829 3.01827 13.5436 4.35878 12.5122C5.72509 11.4549 8.03073 10.9262 9.75794 10.9262C11.7687 10.9262 13.2834 11.4709 14.8621 12.4694C16.4408 13.4679 17.4901 14.3756 18.2649 16.1003C18.2649 14.5437 18.2014 12.0547 18.0921 8.6136C17.9829 5.28173 17.9283 2.93302 17.9283 1.5675H25.2915ZM12.826 27.7762C14.3659 27.7762 15.6229 27.3518 16.5972 26.503C17.5713 25.6229 18.0583 24.2396 18.0583 22.3535C18.0583 20.6874 17.5713 19.4614 16.5972 18.6754C15.6229 17.8895 14.3973 17.4966 12.9203 17.4966C11.5062 17.4966 10.312 17.9524 9.33778 18.8641C8.39502 19.7443 7.92364 20.9074 7.92364 22.3535C7.92364 23.9568 8.36359 25.2614 9.24351 26.2672C10.1234 27.2733 11.3176 27.7762 12.826 27.7762Z" fill="#0A0A0A"/>
<path d="M40.7686 27.9582C40.7686 30.985 38.3191 33.4389 35.2972 33.4389C32.2754 33.4389 29.8259 30.985 29.8259 27.9582C29.8259 24.9313 32.2754 22.4776 35.2972 22.4776C38.3191 22.4776 40.7686 24.9313 40.7686 27.9582Z" fill="#390EF8"/>
<path d="M68.2883 13.508C67.7603 13.508 67.3056 13.3247 66.9243 12.958C66.5576 12.5913 66.3743 12.144 66.3743 11.616C66.3743 11.1027 66.5576 10.6627 66.9243 10.296C67.3056 9.91467 67.7603 9.724 68.2883 9.724H78.8263C79.3397 9.724 79.7797 9.91467 80.1463 10.296C80.5277 10.6627 80.7183 11.1027 80.7183 11.616C80.7183 12.144 80.5277 12.5913 80.1463 12.958C79.7797 13.3247 79.3397 13.508 78.8263 13.508H68.2883ZM72.7543 32.45C72.153 32.45 71.6323 32.23 71.1923 31.79C70.7523 31.35 70.5323 30.822 70.5323 30.206V7.172C70.5323 5.03067 71.2216 3.3 72.6003 1.98C73.979 0.66 75.761 0 77.9463 0C78.5183 0 79.0316 0.0293338 79.4863 0.0880015C79.941 0.146667 80.3223 0.249334 80.6303 0.396C80.953 0.528001 81.217 0.740668 81.4223 1.034C81.6423 1.31267 81.7596 1.66467 81.7743 2.09C81.7743 2.54467 81.679 2.91133 81.4883 3.19C81.2976 3.46867 81.0483 3.68133 80.7403 3.828C80.4323 3.96 80.073 4.01133 79.6623 3.982C79.2663 3.938 78.8263 3.916 78.3423 3.916C77.3743 3.93067 76.5677 4.23867 75.9223 4.84C75.2917 5.42667 74.9763 6.27733 74.9763 7.392V30.206C74.9763 30.822 74.7563 31.35 74.3163 31.79C73.891 32.23 73.3703 32.45 72.7543 32.45Z" fill="#161616"/>
<path d="M93.7952 32.934C90.4219 32.934 87.6279 31.7973 85.4133 29.524C83.1986 27.2507 82.0913 24.3907 82.0913 20.944C82.0913 17.4533 83.1986 14.5933 85.4133 12.364C87.6426 10.1347 90.4366 9.02 93.7952 9.02C97.1539 9.02 99.9406 10.1493 102.155 12.408C104.385 14.652 105.499 17.4973 105.499 20.944C105.499 24.3907 104.392 27.2507 102.177 29.524C99.9773 31.7973 97.1832 32.934 93.7952 32.934ZM93.7952 28.996C95.8633 28.996 97.5939 28.248 98.9873 26.752C100.395 25.256 101.099 23.32 101.099 20.944C101.099 18.5387 100.388 16.6027 98.9653 15.136C97.5573 13.6693 95.8339 12.936 93.7952 12.936C91.7272 12.936 89.9893 13.6767 88.5813 15.158C87.1733 16.6247 86.4693 18.5533 86.4693 20.944C86.4693 23.32 87.1659 25.256 88.5592 26.752C89.9673 28.248 91.7126 28.996 93.7952 28.996Z" fill="#161616"/>
<path d="M109.662 30.206V11.638C109.662 11.0513 109.867 10.5527 110.278 10.142C110.703 9.71667 111.202 9.504 111.774 9.504C112.361 9.504 112.859 9.70933 113.27 10.12C113.695 10.516 113.908 11 113.908 11.572V13.86L113.006 13.024H114.04C114.7 11.8507 115.712 10.89 117.076 10.142C118.44 9.394 119.87 9.02 121.366 9.02C123.962 9.02 125.986 9.79 127.438 11.33C128.89 12.8553 129.616 14.9673 129.616 17.666V30.206C129.616 30.822 129.396 31.35 128.956 31.79C128.531 32.23 128.01 32.45 127.394 32.45C126.793 32.45 126.272 32.23 125.832 31.79C125.392 31.35 125.172 30.822 125.172 30.206V18.48C125.172 16.632 124.732 15.2387 123.852 14.3C122.972 13.3613 121.667 12.892 119.936 12.892C118.293 12.892 116.907 13.5447 115.778 14.85C114.663 16.1553 114.106 17.7173 114.106 19.536V30.206C114.106 30.822 113.886 31.35 113.446 31.79C113.021 32.23 112.5 32.45 111.884 32.45C111.283 32.45 110.762 32.23 110.322 31.79C109.882 31.35 109.662 30.822 109.662 30.206Z" fill="#161616"/>
<path d="M143.467 32.934C141.516 32.934 139.947 32.3547 138.759 31.196C137.585 30.0373 136.999 28.424 136.999 26.356V5.412C136.999 4.81067 137.219 4.29 137.659 3.85C138.099 3.41 138.619 3.19 139.221 3.19C139.837 3.19 140.357 3.41 140.783 3.85C141.223 4.29 141.443 4.81067 141.443 5.412V25.432C141.443 26.664 141.685 27.5733 142.169 28.16C142.667 28.732 143.393 29.0253 144.347 29.04C144.596 29.04 144.853 29.04 145.117 29.04C145.381 29.0253 145.659 29.0547 145.953 29.128C146.246 29.1867 146.525 29.3627 146.789 29.656C147.067 29.9493 147.207 30.3233 147.207 30.778C147.207 31.218 147.104 31.5773 146.899 31.856C146.708 32.1347 146.451 32.3473 146.129 32.494C145.821 32.6407 145.447 32.7507 145.007 32.824C144.567 32.8973 144.053 32.934 143.467 32.934ZM134.931 13.508C134.403 13.508 133.948 13.3247 133.567 12.958C133.2 12.5913 133.017 12.144 133.017 11.616C133.017 11.1027 133.2 10.6627 133.567 10.296C133.948 9.91467 134.403 9.724 134.931 9.724H145.227C145.74 9.724 146.18 9.91467 146.547 10.296C146.928 10.6627 147.119 11.1027 147.119 11.616C147.119 12.144 146.928 12.5913 146.547 12.958C146.18 13.3247 145.74 13.508 145.227 13.508H134.931Z" fill="#161616"/>
<path d="M161.273 13.508C160.745 13.508 160.29 13.3247 159.909 12.958C159.542 12.5913 159.359 12.144 159.359 11.616C159.359 11.1027 159.542 10.6627 159.909 10.296C160.29 9.91467 160.745 9.724 161.273 9.724H171.811C172.324 9.724 172.764 9.91467 173.131 10.296C173.512 10.6627 173.703 11.1027 173.703 11.616C173.703 12.144 173.512 12.5913 173.131 12.958C172.764 13.3247 172.324 13.508 171.811 13.508H161.273ZM165.739 32.45C165.137 32.45 164.617 32.23 164.177 31.79C163.737 31.35 163.517 30.822 163.517 30.206V7.172C163.517 5.03067 164.206 3.3 165.585 1.98C166.963 0.66 168.745 0 170.931 0C171.503 0 172.016 0.0293338 172.471 0.0880015C172.925 0.146667 173.307 0.249334 173.615 0.396C173.937 0.528001 174.201 0.740668 174.407 1.034C174.627 1.31267 174.744 1.66467 174.759 2.09C174.759 2.54467 174.663 2.91133 174.473 3.19C174.282 3.46867 174.033 3.68133 173.725 3.828C173.417 3.96 173.057 4.01133 172.647 3.982C172.251 3.938 171.811 3.916 171.327 3.916C170.359 3.93067 169.552 4.23867 168.907 4.84C168.276 5.42667 167.961 6.27733 167.961 7.392V30.206C167.961 30.822 167.741 31.35 167.301 31.79C166.875 32.23 166.355 32.45 165.739 32.45Z" fill="#161616"/>
<path d="M186.78 32.934C183.406 32.934 180.612 31.7973 178.398 29.524C176.183 27.2507 175.076 24.3907 175.076 20.944C175.076 17.4533 176.183 14.5933 178.398 12.364C180.627 10.1347 183.421 9.02 186.78 9.02C190.138 9.02 192.925 10.1493 195.14 12.408C197.369 14.652 198.484 17.4973 198.484 20.944C198.484 24.3907 197.376 27.2507 195.162 29.524C192.962 31.7973 190.168 32.934 186.78 32.934ZM186.78 28.996C188.848 28.996 190.578 28.248 191.972 26.752C193.38 25.256 194.084 23.32 194.084 20.944C194.084 18.5387 193.372 16.6027 191.95 15.136C190.542 13.6693 188.818 12.936 186.78 12.936C184.712 12.936 182.974 13.6767 181.566 15.158C180.158 16.6247 179.454 18.5533 179.454 20.944C179.454 23.32 180.15 25.256 181.544 26.752C182.952 28.248 184.697 28.996 186.78 28.996Z" fill="#161616"/>
<path d="M210.786 32.934C208.132 32.934 206.078 32.1567 204.626 30.602C203.174 29.0473 202.448 26.8473 202.448 24.002V11.726C202.448 11.11 202.668 10.582 203.108 10.142C203.548 9.702 204.069 9.482 204.67 9.482C205.286 9.482 205.807 9.702 206.232 10.142C206.672 10.582 206.892 11.11 206.892 11.726V23.342C206.892 25.234 207.325 26.6787 208.19 27.676C209.07 28.6587 210.317 29.15 211.93 29.15C213.632 29.15 215.062 28.4973 216.22 27.192C217.379 25.8867 217.958 24.3247 217.958 22.506V11.726C217.958 11.11 218.178 10.582 218.618 10.142C219.058 9.702 219.579 9.482 220.18 9.482C220.796 9.482 221.317 9.702 221.742 10.142C222.182 10.582 222.402 11.11 222.402 11.726V30.272C222.402 30.888 222.19 31.4087 221.764 31.834C221.354 32.2447 220.87 32.45 220.312 32.45C219.726 32.45 219.227 32.252 218.816 31.856C218.406 31.46 218.2 30.9907 218.2 30.448V27.082L220.136 29.018H218.068C217.423 30.1473 216.426 31.086 215.076 31.834C213.742 32.5673 212.312 32.934 210.786 32.934Z" fill="#161616"/>
<path d="M227.783 30.206V11.638C227.783 11.0513 227.988 10.5527 228.399 10.142C228.824 9.71667 229.323 9.504 229.895 9.504C230.482 9.504 230.98 9.70933 231.391 10.12C231.816 10.516 232.029 11 232.029 11.572V13.86L231.127 13.024H232.161C232.821 11.8507 233.833 10.89 235.197 10.142C236.561 9.394 237.991 9.02 239.487 9.02C242.083 9.02 244.107 9.79 245.559 11.33C247.011 12.8553 247.737 14.9673 247.737 17.666V30.206C247.737 30.822 247.517 31.35 247.077 31.79C246.652 32.23 246.131 32.45 245.515 32.45C244.914 32.45 244.393 32.23 243.953 31.79C243.513 31.35 243.293 30.822 243.293 30.206V18.48C243.293 16.632 242.853 15.2387 241.973 14.3C241.093 13.3613 239.788 12.892 238.057 12.892C236.414 12.892 235.028 13.5447 233.899 14.85C232.784 16.1553 232.227 17.7173 232.227 19.536V30.206C232.227 30.822 232.007 31.35 231.567 31.79C231.142 32.23 230.621 32.45 230.005 32.45C229.404 32.45 228.883 32.23 228.443 31.79C228.003 31.35 227.783 30.822 227.783 30.206Z" fill="#161616"/>
<path d="M262.358 32.934C259.307 32.934 256.77 31.8193 254.746 29.59C252.722 27.3607 251.71 24.4933 251.71 20.988C251.71 17.4827 252.729 14.6153 254.768 12.386C256.821 10.1567 259.381 9.042 262.446 9.042C264.015 9.042 265.46 9.40133 266.78 10.12C268.1 10.8387 269.097 11.77 269.772 12.914H269.904V2.684C269.904 2.068 270.117 1.54733 270.542 1.122C270.982 0.682 271.51 0.462001 272.126 0.462001C272.727 0.462001 273.241 0.682 273.666 1.122C274.106 1.54733 274.326 2.068 274.326 2.684V30.294C274.326 30.866 274.113 31.372 273.688 31.812C273.277 32.2373 272.779 32.45 272.192 32.45C271.62 32.45 271.129 32.2593 270.718 31.878C270.307 31.482 270.102 31.0127 270.102 30.47V28.138L270.586 29.062H269.97C269.251 30.2353 268.203 31.174 266.824 31.878C265.46 32.582 263.971 32.934 262.358 32.934ZM263.084 29.04C265.049 29.04 266.707 28.2847 268.056 26.774C269.405 25.2633 270.08 23.32 270.08 20.944C270.08 18.5827 269.398 16.6613 268.034 15.18C266.67 13.6987 265.02 12.958 263.084 12.958C261.133 12.958 259.476 13.6987 258.112 15.18C256.748 16.6613 256.066 18.59 256.066 20.966C256.066 23.3273 256.741 25.2633 258.09 26.774C259.439 28.2847 261.104 29.04 263.084 29.04Z" fill="#161616"/>
<path d="M281.954 32.45C281.338 32.45 280.81 32.23 280.37 31.79C279.945 31.35 279.732 30.822 279.732 30.206V11.638C279.732 11.0513 279.938 10.5527 280.348 10.142C280.774 9.71667 281.272 9.504 281.844 9.504C282.416 9.504 282.915 9.70933 283.34 10.12C283.766 10.516 283.978 11 283.978 11.572V13.816L283.406 13.288H284.11C284.521 12.0853 285.342 11.0733 286.574 10.252C287.806 9.43067 289.097 9.02 290.446 9.02C290.842 9.02 291.246 9.04933 291.656 9.108C292.082 9.16667 292.441 9.284 292.734 9.46C293.042 9.636 293.284 9.88533 293.46 10.208C293.651 10.5307 293.739 10.9267 293.724 11.396C293.695 11.88 293.548 12.2907 293.284 12.628C293.035 12.9507 292.734 13.178 292.382 13.31C292.045 13.4273 291.642 13.464 291.172 13.42C290.703 13.3613 290.307 13.332 289.984 13.332C288.356 13.3467 286.978 13.9773 285.848 15.224C284.734 16.4707 284.176 17.996 284.176 19.8V30.206C284.176 30.822 283.956 31.35 283.516 31.79C283.076 32.23 282.556 32.45 281.954 32.45Z" fill="#161616"/>
<path d="M301.37 41.954C300.593 41.954 300.006 41.646 299.61 41.03C299.214 40.4287 299.199 39.7393 299.566 38.962L303.944 29.37L304.076 32.208L295.254 12.606C294.873 11.77 294.895 11.044 295.32 10.428C295.745 9.812 296.347 9.504 297.124 9.504C297.549 9.504 297.953 9.636 298.334 9.9C298.73 10.164 299.001 10.4867 299.148 10.868L304.846 24.156L305.484 26.004H305.616L306.32 24.112L311.776 10.89C311.923 10.494 312.187 10.164 312.568 9.9C312.949 9.636 313.353 9.504 313.778 9.504C314.57 9.504 315.171 9.812 315.582 10.428C315.993 11.044 316.022 11.748 315.67 12.54L303.372 40.656C303.225 41.008 302.961 41.3087 302.58 41.558C302.199 41.822 301.795 41.954 301.37 41.954Z" fill="#161616"/>
</svg>
